#!OML:ASF F:\VICON\USERDATA\INSTALL\rory3\rory3.ASF
:FULLY-SPECIFIED
:DEGREES
404
root 0.771964 17.9961 -0.823961 3.39977 -29.7786 1.58946
lowerback 2.87015 -1.42773 -4.68127
upperback 1.57773 -2.01922 1.68656
thorax 0.239169 -1.05437 4.41602
lowerneck -17.7293 -0.468494 -12.1154
upperneck 6.74836 1.27536 7.73471
head 4.75548 0.828637 4.51631
rclavicle 2.36057e-014 -3.57812e-015
rhumerus -33.7335 -4.1468 -74.1591
rradius 43.5543
rwrist 13.6441
rhand -26.6266 11.2261
rfingers 7.12502
rthumb -0.059426 -18.7536
lclavicle 2.36057e-014 -3.57812e-015
lhumerus 27.3225 -19.5831 57.1194
lradius 109.691
lwrist 4.14731
lhand -34.7094 39.8551
lfingers 7.12502
lthumb -7.86433 69.6888
rfemur -12.4268 2.34291 10.6174
rtibia 23.7465
rfoot -14.7276 -10.5063
rtoes 3.81314
lfemur -4.56874 0.976595 -23.4827
ltibia 15.0647
lfoot -9.58499 6.26655
ltoes -12.3253
405
root 0.776835 17.9978 -0.831422 3.39609 -29.8521 1.5909
lowerback 2.90548 -1.3864 -4.70261
upperback 1.61439 -1.96591 1.65399
thorax 0.250819 -1.02881 4.3937
lowerneck -17.518 -0.486987 -12.0832
upperneck 6.97452 1.22067 7.6686
head 4.7988 0.790876 4.48601
rclavicle 6.52014e-014 -1.98785e-015
rhumerus -33.7508 -4.13814 -74.2554
rradius 43.6553
rwrist 13.7623
rhand -26.7244 10.9635
rfingers 7.12502
rthumb -0.153933 -19.0162
lclavicle 6.52014e-014 -1.98785e-015
lhumerus 26.7883 -20.0217 57.4575
lradius 109.873
lwrist 4.16906
lhand -34.7064 40.2541
lfingers 7.12502
lthumb -7.86144 70.0879
rfemur -12.4783 2.33148 10.6151
rtibia 23.7388
rfoot -14.5917 -10.518
rtoes 3.51054
lfemur -4.58943 0.967673 -23.4932
ltibia 15.0731
lfoot -9.60623 6.34274
ltoes -12.3836
406
root 0.780558 17.9994 -0.838575 3.36719 -29.9452 1.6256
lowerback 2.91599 -1.28678 -4.72555
upperback 1.70113 -1.83326 1.53358
thorax 0.31623 -0.965563 4.27797
lowerneck -17.3491 -0.538128 -11.8368
upperneck 7.1575 1.09232 7.49073
head 4.84441 0.716775 4.37853
rclavicle -1.93815e-015 3.18055e-015
rhumerus -33.7082 -4.41211 -74.4235
rradius 43.6954
rwrist 13.9517
rhand -26.7512 10.8411
rfingers 7.12502
rthumb -0.179751 -19.1386
lclavicle -1.93815e-015 3.18055e-015
lhumerus 26.4661 -20.5628 57.7252
lradius 110.035
lwrist 4.3028
lhand -34.5878 40.5175
lfingers 7.12502
lthumb -7.74694 70.3556
rfemur -12.5147 2.40677 10.5826
rtibia 23.7126
rfoot -14.5071 -10.5532
rtoes 3.15991
lfemur -4.61633 0.989458 -23.5351
ltibia 15.107
lfoot -9.59372 6.40656
ltoes -12.3515
407
root 0.78477 18.0018 -0.846218 3.41078 -29.9572 1.58035
lowerback 2.93711 -1.25679 -4.70737
upperback 1.7 -1.79377 1.48868
thorax 0.296777 -0.944789 4.22097
lowerneck -17.074 -0.525924 -11.686
upperneck 7.40999 1.05271 7.35603
head 4.88483 0.683836 4.30785
rclavicle -4.91495e-014 -3.57812e-015
rhumerus -33.7547 -4.55337 -74.518
rradius 43.7174
rwrist 14.208
rhand -26.722 10.9927
rfingers 7.12502
rthumb -0.15155 -18.987
lclavicle -4.91495e-014 -3.57812e-015
lhumerus 25.8872 -20.9903 58.1353
lradius 110.234
lwrist 4.49494
lhand -34.2498 40.7558
lfingers 7.12502
lthumb -7.4207 70.6057
rfemur -12.547 2.37616 10.6255
rtibia 23.6515
rfoot -14.4285 -10.5471
rtoes 3.23986
lfemur -4.71438 0.897897 -23.4846
ltibia 15.1914
lfoot -9.56808 6.45192
ltoes -11.817
408
root 0.790177 18.0027 -0.856008 3.46392 -29.8906 1.50094
lowerback 2.99508 -1.25694 -4.62553
upperback 1.63027 -1.79522 1.47038
thorax 0.189231 -0.940317 4.15854
lowerneck -16.5522 -0.512462 -11.6797
upperneck 7.58266 1.00919 7.32509
head 4.85977 0.649818 4.28973
rclavicle 2.96686e-014 -1.76918e-014
rhumerus -33.958 -4.50309 -74.583
rradius 43.8149
rwrist 14.2048
rhand -26.6973 11.1216
rfingers 7.12502
rthumb -0.127776 -18.8581
lclavicle 2.96686e-014 -1.76918e-014
lhumerus 25.1783 -21.4981 58.5968
lradius 110.41
lwrist 4.60793
lhand -34.2371 40.9925
lfingers 7.12502
lthumb -7.40841 70.8428
rfemur -12.5575 2.31183 10.7081
rtibia 23.5862
rfoot -14.3884 -10.5633
rtoes 3.54521
lfemur -4.81717 0.857037 -23.4006
ltibia 15.2814
lfoot -9.6025 6.41261
ltoes -11.891
409
root 0.795861 18.0029 -0.864371 3.46128 -29.8577 1.40368
lowerback 3.03484 -1.21868 -4.45412
upperback 1.67524 -1.74124 1.41336
thorax 0.20008 -0.913012 4.00188
lowerneck -16.328 -0.544586 -11.6825
upperneck 7.89235 0.93322 7.33112
head 4.92786 0.6041 4.28823
rclavicle -4.63168e-014 -7.35503e-015
rhumerus -34.0531 -4.51178 -74.7008
rradius 43.9883
rwrist 14.109
rhand -26.5642 10.9975
rfingers 7.12502
rthumb 0.000785987 -18.9823
lclavicle -4.63168e-014 -7.35503e-015
lhumerus 24.6322 -22.0132 58.9717
lradius 110.517
lwrist 4.63133
lhand -34.3698 41.1488
lfingers 7.12502
lthumb -7.53652 70.9945
rfemur -12.4944 2.32766 10.7989
rtibia 23.5082
rfoot -14.3587 -10.591
rtoes 4.45855
lfemur -4.84672 0.810005 -23.3105
ltibia 15.3936
lfoot -9.68403 6.44983
ltoes -12.0411
410
root 0.799514 18.003 -0.873453 3.49039 -29.8868 1.35763
lowerback 3.00562 -1.19579 -4.36832
upperback 1.86457 -1.70576 1.36997
thorax 0.403671 -0.903549 3.90403
lowerneck -16.7387 -0.590482 -11.7314
upperneck 8.3319 0.918295 7.34563
head 5.13267 0.594369 4.31163
rclavicle 1.13307e-014 -1.98785e-015
rhumerus -33.7409 -4.53414 -74.8676
rradius 44.0999
rwrist 14.0592
rhand -26.4502 10.8745
rfingers 7.12502
rthumb 0.110892 -19.1052
lclavicle 1.13307e-014 -1.98785e-015
lhumerus 24.3649 -22.2442 59.2634
lradius 110.622
lwrist 4.70102
lhand -34.3243 41.3308
lfingers 7.12502
lthumb -7.49259 71.1781
rfemur -12.5136 2.40276 10.8415
rtibia 23.4368
rfoot -14.3204 -10.6524
rtoes 5.04399
lfemur -4.94568 0.779742 -23.2625
ltibia 15.516
lfoot -9.73095 6.51531
ltoes -11.7938
411
root 0.802354 18.0043 -0.884266 3.57346 -29.9401 1.3086
lowerback 2.98022 -1.18589 -4.34456
upperback 1.98548 -1.69 1.3724
thorax 0.540194 -0.901481 3.89032
lowerneck -16.8615 -0.628791 -11.9454
upperneck 8.56587 0.909585 7.46382
head 5.22528 0.589039 4.38948
rclavicle -1.27222e-014 1.63003e-014
rhumerus -33.4833 -4.43464 -74.9687
rradius 44.2006
rwrist 14.0617
rhand -26.3967 10.8488
rfingers 7.12502
rthumb 0.162552 -19.1309
lclavicle -1.27222e-014 1.63003e-014
lhumerus 24.0006 -22.4211 59.6315
lradius 110.733
lwrist 4.72079
lhand -34.3997 41.4277
lfingers 7.12502
lthumb -7.56537 71.2724
rfemur -12.6077 2.52614 10.8884
rtibia 23.3786
rfoot -14.3306 -10.7132
rtoes 4.98428
lfemur -5.10682 0.901494 -23.21
ltibia 15.6206
lfoot -9.71502 6.46152
ltoes -11.9538
412
root 0.806136 18.0061 -0.89388 3.59948 -29.9675 1.30085
lowerback 2.98709 -1.13402 -4.34619
upperback 1.93448 -1.62146 1.32673
thorax 0.475583 -0.864122 3.84358
lowerneck -16.1249 -0.613518 -11.9901
upperneck 8.53054 0.845553 7.52593
head 5.10105 0.550196 4.40227
rclavicle -4.26393e-014 7.95139e-015
rhumerus -33.7157 -4.3558 -75.053
rradius 44.4074
rwrist 13.9963
rhand -26.5545 10.7135
rfingers 7.12502
rthumb 0.0102344 -19.2662
lclavicle -4.26393e-014 7.95139e-015
lhumerus 23.3107 -22.9602 60.1553
lradius 110.816
lwrist 4.61723
lhand -34.5156 41.3698
lfingers 7.12502
lthumb -7.67728 71.2104
rfemur -12.662 2.55288 10.8964
rtibia 23.3368
rfoot -14.2558 -10.755
rtoes 4.39011
lfemur -5.22297 0.941732 -23.1921
ltibia 15.7092
lfoot -9.7359 6.41615
ltoes -11.7323
413
root 0.80888 18.0069 -0.905139 3.62658 -29.9108 1.30148
lowerback 2.98643 -1.09096 -4.38245
upperback 1.87711 -1.56523 1.27088
thorax 0.410703 -0.833051 3.80591
lowerneck -15.4397 -0.57974 -11.7552
upperneck 8.59724 0.781299 7.33464
head 5.01875 0.501353 4.2902
rclavicle -6.06293e-015 2.98177e-015
rhumerus -33.9484 -4.32773 -75.1841
rradius 44.5718
rwrist 13.8925
rhand -26.7879 10.5051
rfingers 7.12502
rthumb -0.215233 -19.4745
lclavicle -6.06293e-015 2.98177e-015
lhumerus 22.6247 -23.5895 60.6306
lradius 110.942
lwrist 4.34549
lhand -34.524 41.7118
lfingers 7.12502
lthumb -7.68536 71.5521
rfemur -12.7006 2.58449 10.9049
rtibia 23.3008
rfoot -14.2459 -10.8408
rtoes 4.09377
lfemur -5.34189 0.928901 -23.1661
ltibia 15.7901
lfoot -9.77235 6.34466
ltoes -11.3919
414
root 0.81244 18.0086 -0.916456 3.71353 -29.8224 1.23135
lowerback 2.98219 -1.08745 -4.33689
upperback 1.86287 -1.55935 1.2487
thorax 0.395797 -0.828848 3.75724
lowerneck -15.0953 -0.558143 -11.6251
upperneck 8.81437 0.754543 7.19675
head 5.03401 0.47375 4.22212
rclavicle -4.97707e-014 7.95139e-015
rhumerus -34.0024 -4.32629 -75.3003
rradius 44.6763
rwrist 13.8783
rhand -26.9289 10.4643
rfingers 7.12502
rthumb -0.35145 -19.5152
lclavicle -4.97707e-014 7.95139e-015
lhumerus 22.0047 -24.0991 61.0496
lradius 111.113
lwrist 4.17661
lhand -34.6325 42.1571
lfingers 7.12502
lthumb -7.79004 71.9936
rfemur -12.7624 2.65379 10.9862
rtibia 23.2783
rfoot -14.2707 -11.0108
rtoes 3.90602
lfemur -5.4775 0.920548 -23.0734
ltibia 15.8393
lfoot -9.75321 6.23758
ltoes -11.1924
415
root 0.817002 18.01 -0.92262 3.76757 -29.7992 1.20627
lowerback 2.94396 -1.09552 -4.3258
upperback 1.87866 -1.56804 1.25775
thorax 0.434241 -0.834412 3.75938
lowerneck -14.8998 -0.533999 -11.7534
upperneck 9.10522 0.776031 7.25774
head 5.08987 0.47558 4.26713
rclavicle -7.0817e-014 8.94531e-015
rhumerus -33.9913 -4.23768 -75.3343
rradius 44.7726
rwrist 13.91
rhand -26.939 10.6754
rfingers 7.12502
rthumb -0.361127 -19.304
lclavicle -7.0817e-014 8.94531e-015
lhumerus 21.3508 -24.3627 61.6045
lradius 111.253
lwrist 4.20634
lhand -34.5537 42.4246
lfingers 7.12502
lthumb -7.71406 72.2639
rfemur -12.8154 2.64735 11.002
rtibia 23.27
rfoot -14.3197 -11.0115
rtoes 4.3749
lfemur -5.55939 0.892945 -23.0575
ltibia 15.8599
lfoot -9.70239 6.26622
ltoes -11.3329
